<svg width="33.464298" height="35.000000" viewBox="0 0 33.4643 35" fill="none" xmlns="http://www.w3.org/2000/svg" xmlns:xlink="http://www.w3.org/1999/xlink">
	<desc>
			Created with Pixso.
	</desc>
	<defs>
		<clipPath id="clip11_219">
			<rect id="Frame" rx="0.000000" width="17.906975" height="17.906975" transform="translate(7.778650 8.546503)" fill="white" fill-opacity="0"/>
		</clipPath>
		<linearGradient x1="16.732145" y1="0.000000" x2="16.732145" y2="35.000000" id="paint_linear_11_217_0" gradientUnits="userSpaceOnUse">
			<stop stop-color="#FFFFFF" stop-opacity="0.301961"/>
			<stop offset="1.000000" stop-color="#4E4949"/>
		</linearGradient>
	</defs>
	<rect id="Frame 1" rx="10.174419" width="32.650345" height="34.186047" transform="translate(0.406977 0.406977)" fill="url(#paint_linear_11_217_0)" fill-opacity="0.200000"/>
	<path id="Union" d="M13.6868 9.17393C13.7155 9.20276 13.7437 9.23203 13.7715 9.26172C12.4254 9.91977 11.3287 11.0117 10.6647 12.3543C10.6377 12.3287 10.6107 12.303 10.5841 12.2765C9.44181 11.1341 9.21032 9.51353 10.0671 8.6568C10.9238 7.80006 12.5444 8.03156 13.6868 9.17393ZM22.8801 12.2765C22.8536 12.3031 22.8266 12.3288 22.7996 12.3543C22.1355 11.0117 21.0389 9.91977 19.6928 9.26172C19.7205 9.23221 19.7486 9.20285 19.7775 9.17393C20.9199 8.03159 22.5405 7.80009 23.3972 8.65683C24.254 9.51358 24.0225 11.1342 22.8801 12.2765ZM14.9639 19.0833C13.5848 19.4198 12.3197 20.1496 11.2944 21.2196C10.5242 22.0234 9.9385 22.968 9.55939 23.9974C8.63556 22.9609 8.13953 21.7428 8.13953 20.4617C8.13953 18.5998 9.20118 16.8589 11.0647 15.6451L11.0647 15.3427C11.0647 12.2177 13.6071 9.67526 16.7321 9.67526C19.8572 9.67526 22.3996 12.2177 22.3996 15.3427L22.3996 15.6451C24.2631 16.8589 25.3248 18.5998 25.3248 20.4617C25.3248 21.7428 24.8287 22.9609 23.9049 23.9974C23.5258 22.968 22.9401 22.0234 22.1698 21.2196C21.1445 20.1496 19.8795 19.4198 18.5004 19.0833C18.2944 18.2994 17.5798 17.7194 16.7321 17.7194C15.8844 17.7194 15.1699 18.2994 14.9639 19.0833ZM14.1726 14.7943C13.8697 14.7943 13.6242 15.0398 13.6242 15.3427L13.6242 16.4397C13.6242 16.7426 13.8697 16.9881 14.1726 16.9881C14.4755 16.9881 14.7211 16.7426 14.7211 16.4397L14.7211 15.3427C14.7211 15.0398 14.4755 14.7943 14.1726 14.7943ZM19.2916 14.7943C18.9887 14.7943 18.7432 15.0398 18.7432 15.3427L18.7432 16.4397C18.7432 16.7426 18.9887 16.9881 19.2916 16.9881C19.5945 16.9881 19.8401 16.7426 19.8401 16.4397L19.8401 15.3427C19.8401 15.0398 19.5945 14.7943 19.2916 14.7943ZM16.7321 18.8163C17.0474 18.8163 17.3166 19.0168 17.4192 19.297L16.7321 19.7877L16.0451 19.297C16.1476 19.0168 16.4169 18.8163 16.7321 18.8163ZM10.4424 24.8293C10.5338 24.9023 10.6269 24.9732 10.7215 25.0421C12.3338 26.2147 14.4685 26.8605 16.7321 26.8605C18.9958 26.8605 21.1305 26.2147 22.7428 25.0421C22.8374 24.9732 22.9305 24.9022 23.0219 24.8292C22.3281 22.478 20.4625 20.6607 18.1429 20.1281L17.2806 20.744L17.2806 21.5587C17.2806 21.8611 17.5267 22.1071 17.8291 22.1071C18.1315 22.1071 18.3775 21.8611 18.3775 21.5587C18.3775 21.2558 18.6231 21.0102 18.926 21.0102C19.2289 21.0102 19.4745 21.2558 19.4745 21.5587C19.4745 22.3123 18.9651 22.9487 18.2726 23.1429L17.9955 24.2512C17.9658 24.3699 17.8974 24.4752 17.801 24.5505C17.7045 24.6257 17.5857 24.6666 17.4634 24.6666L16.0009 24.6666C15.8785 24.6666 15.7597 24.6257 15.6633 24.5505C15.5669 24.4752 15.4984 24.3699 15.4688 24.2512L15.1917 23.1428C14.4992 22.9487 13.9898 22.3123 13.9898 21.5587C13.9898 21.2558 14.2354 21.0102 14.5383 21.0102C14.8412 21.0102 15.0868 21.2558 15.0868 21.5587C15.0868 21.8611 15.3328 22.1071 15.6352 22.1071C15.9376 22.1071 16.1837 21.8611 16.1837 21.5587L16.1837 20.744L15.3214 20.1281C13.0017 20.6607 11.1362 22.478 10.4424 24.8293ZM16.3023 23.0625C16.4592 22.9925 16.6042 22.8985 16.7321 22.7838C16.8601 22.8985 17.0051 22.9925 17.162 23.0625L17.0352 23.5697L16.4291 23.5697L16.3023 23.0625Z" clip-rule="evenodd" fill="#FFFFFF" fill-opacity="1.000000" fill-rule="evenodd"/>
</svg>
