<svg width="24.027847" height="24.000000" viewBox="0 0 24.0278 24" fill="none" xmlns="http://www.w3.org/2000/svg" xmlns:xlink="http://www.w3.org/1999/xlink">
	<desc>
			Created with Pixso.
	</desc>
	<defs/>
	<path id="Union" d="M7.33281 10.0629L4.63504 7.36545C4.66544 7.31113 11.8835 0.081604 11.9906 0L19.3635 7.37231C19.3334 7.42664 16.806 9.96568 16.6734 10.0682L12.0006 5.39536L7.33281 10.0629ZM9.28032 12.007L12.0015 14.7281L14.7202 12.0095L11.999 9.28841L9.28032 12.007ZM24.0277 12.0237C24.005 12.042 23.9805 12.0585 23.96 12.079C23.111 12.9274 22.2623 13.7762 21.4135 14.6248C21.3854 14.6529 21.3566 14.6801 21.3355 14.7004L18.6484 12.0132L21.3366 9.32512C21.3462 9.33353 21.3717 9.35336 21.3943 9.37601C22.2642 10.2462 23.1337 11.1166 24.0035 11.9867C24.0104 11.9936 24.0197 11.998 24.0278 12.0036C24.0277 12.0102 24.0277 12.0168 24.0277 12.0235L24.0277 12.0237ZM2.67513 9.32672L0 12.0018L2.67831 14.6801L5.35312 12.0047L2.67513 9.32672ZM7.32312 13.9449L11.9962 18.6178C12.1814 18.449 12.3478 18.2718 12.5204 18.1011C12.694 17.9294 12.8659 17.7561 13.0386 17.5834L14.0744 16.5476L14.5994 16.0226L15.6353 14.9868L16.1532 14.4689L16.6798 13.9424L19.3716 16.6307L12.0019 24L4.63112 16.6291C5.51833 15.7443 6.41713 14.8482 7.32312 13.9449Z" clip-rule="evenodd" fill="#F4B92E" fill-opacity="1.000000" fill-rule="evenodd"/>
</svg>
