<svg width="20.338984" height="20.338984" viewBox="0 0 20.339 20.339" fill="none" xmlns="http://www.w3.org/2000/svg" xmlns:xlink="http://www.w3.org/1999/xlink">
	<desc>
			Created with Pixso.
	</desc>
	<defs>
		<filter id="filter_11_254_dd" x="3.813557" y="6.101696" width="12.457626" height="12.457626" filterUnits="userSpaceOnUse" color-interpolation-filters="sRGB">
			<feFlood flood-opacity="0" result="BackgroundImageFix"/>
			<feBlend mode="normal" in="SourceGraphic" in2="BackgroundImageFix" result="shape"/>
			<feColorMatrix in="SourceAlpha" type="matrix" values="0 0 0 0 0 0 0 0 0 0 0 0 0 0 0 0 0 0 127 0" result="hardAlpha"/>
			<feOffset dx="0" dy="0.254237"/>
			<feGaussianBlur stdDeviation="0"/>
			<feComposite in2="hardAlpha" operator="arithmetic" k2="-1" k3="1"/>
			<feColorMatrix type="matrix" values="0 0 0 0 0 0 0 0 0 0 0 0 0 0 0 0 0 0 0.25 0"/>
			<feBlend mode="normal" in2="shape" result="effect_innerShadow_1"/>
		</filter>
		<filter id="filter_11_255_dd" x="7.627117" y="8.389843" width="4.830509" height="8.389832" filterUnits="userSpaceOnUse" color-interpolation-filters="sRGB">
			<feFlood flood-opacity="0" result="BackgroundImageFix"/>
			<feColorMatrix in="SourceAlpha" type="matrix" values="0 0 0 0 0 0 0 0 0 0 0 0 0 0 0 0 0 0 127 0" result="hardAlpha"/>
			<feOffset dx="0" dy="0.254237"/>
			<feGaussianBlur stdDeviation="0"/>
			<feComposite in2="hardAlpha" operator="out" k2="-1" k3="1"/>
			<feColorMatrix type="matrix" values="0 0 0 0 0 0 0 0 0 0 0 0 0 0 0 0 0 0 0.25 0"/>
			<feBlend mode="normal" in2="BackgroundImageFix" result="effect_dropShadow_1"/>
			<feBlend mode="normal" in="SourceGraphic" in2="effect_dropShadow_1" result="shape"/>
		</filter>
		<filter id="filter_11_256_dd" x="0.000000" y="0.000000" width="20.338984" height="20.338984" filterUnits="userSpaceOnUse" color-interpolation-filters="sRGB">
			<feFlood flood-opacity="0" result="BackgroundImageFix"/>
			<feBlend mode="normal" in="SourceGraphic" in2="BackgroundImageFix" result="shape"/>
			<feGaussianBlur stdDeviation="2.0339" result="effect_layerBlur_1"/>
		</filter>
	</defs>
	<circle id="Ellipse 6" cx="10.042370" cy="12.330517" r="7.500000" fill="#F9E160" fill-opacity="1.000000"/>
	<g filter="url(#filter_11_254_dd)">
		<circle id="Ellipse 7" cx="10.042370" cy="12.330509" r="6.228814" fill="#FE881C" fill-opacity="0.720000"/>
	</g>
	<g filter="url(#filter_11_255_dd)">
		<path id="$" d="M9.75 16.52L9.75 15.68C8.84 15.61 8.13 15.28 7.62 14.7L8.22 13.86C8.64 14.32 9.15 14.6 9.75 14.69L9.75 12.88C9.46 12.81 9.23 12.74 9.04 12.67C8.85 12.59 8.65 12.49 8.44 12.36C8.24 12.22 8.08 12.05 7.97 11.83C7.87 11.62 7.81 11.36 7.81 11.07C7.81 10.58 7.99 10.18 8.34 9.84C8.7 9.5 9.17 9.31 9.75 9.26L9.75 8.38L10.48 8.38L10.48 9.27C11.22 9.35 11.83 9.63 12.32 10.11L11.7 10.92C11.37 10.59 10.96 10.37 10.48 10.27L10.48 11.88C10.71 11.94 10.9 12 11.06 12.06C11.21 12.12 11.39 12.2 11.58 12.3C11.77 12.4 11.93 12.52 12.04 12.64C12.16 12.76 12.25 12.92 12.33 13.11C12.41 13.3 12.45 13.52 12.45 13.76C12.45 14.28 12.29 14.71 11.95 15.07C11.62 15.42 11.13 15.62 10.48 15.68L10.48 16.52L9.75 16.52ZM11.15 14.39C11.29 14.24 11.37 14.06 11.37 13.87C11.37 13.67 11.29 13.52 11.14 13.4C10.99 13.27 10.77 13.17 10.48 13.08L10.48 14.7C10.78 14.65 11 14.55 11.15 14.39ZM8.91 10.99C8.91 11.29 9.19 11.52 9.75 11.68L9.75 10.22C9.49 10.25 9.28 10.33 9.13 10.48C8.98 10.61 8.91 10.78 8.91 10.99Z" fill="#FFEA7C" fill-opacity="1.000000" fill-rule="nonzero"/>
	</g>
	<g filter="url(#filter_11_256_dd)" style="mix-blend-mode:overlay">
		<circle id="Ellipse 8" cx="10.169493" cy="10.169491" r="4.067797" fill="#FFFFFF" fill-opacity="1.000000"/>
	</g>
</svg>
