<svg width="25.227478" height="19.007446" viewBox="0 0 25.2275 19.0074" fill="none" xmlns="http://www.w3.org/2000/svg" xmlns:xlink="http://www.w3.org/1999/xlink">
	<desc>
			Created with Pixso.
	</desc>
	<defs/>
	<g opacity="0.200000">
		<g style="mix-blend-mode:normal">
			<path id="Intersect" d="M8.80099 16.7678C8.1804 16.2903 7.81128 15.7191 7.81128 15.0577L7.81128 11.5433C7.8152 11.5159 7.82144 11.4888 7.82994 11.4625C7.82025 11.4174 7.81401 11.3716 7.81128 11.3256C7.81128 9.01794 12.1902 7.81128 16.5194 7.81128C20.8486 7.81128 25.2275 9.01794 25.2275 11.3256C25.2247 11.3716 25.2185 11.4174 25.2088 11.4625C25.2173 11.4888 25.2236 11.5159 25.2275 11.5433L25.2275 15.0577C25.2247 15.2975 25.174 15.5344 25.0782 15.7543C25.0811 15.7561 25.0841 15.7579 25.087 15.7598C23.6615 17.7021 20.8471 19.0074 16.8304 19.0074C13.5565 19.0074 10.7124 18.1403 8.80099 16.7678ZM9.0553 15.0577C9.0553 15.4185 9.49692 15.8414 10.2993 16.2208L10.2993 14.0314C10.3036 13.9744 10.3141 13.9181 10.3304 13.8634C9.88344 13.6966 9.4559 13.4818 9.0553 13.2227L9.0553 15.0577ZM23.9835 13.2227C23.5829 13.4818 23.1553 13.6966 22.7083 13.8634C22.7247 13.9181 22.7351 13.9744 22.7395 14.0314L22.7395 16.2208C23.5418 15.8414 23.9835 15.4185 23.9835 15.0577L23.9835 13.2227ZM11.5433 16.6873C12.9741 17.0845 14.45 17.2956 15.9347 17.3156C15.9128 17.2599 15.9002 17.2011 15.8974 17.1414L15.8974 14.8275C14.4287 14.8011 12.9679 14.607 11.5433 14.249L11.5433 16.6873ZM21.4954 14.249C20.0708 14.607 18.61 14.8011 17.1414 14.8275L17.1414 17.1414C17.1386 17.2011 17.126 17.2599 17.1041 17.3156C18.5888 17.2956 20.0647 17.0845 21.4954 16.6873L21.4954 14.249Z" clip-rule="evenodd" fill="#FFFFFF" fill-opacity="1.000000" fill-rule="evenodd"/>
		</g>
		<g style="mix-blend-mode:normal">
			<path id="Intersect" d="M17.916 8.42896C15.9451 10.103 12.6949 11.1962 9.0191 11.1962C6.03128 11.1962 3.32462 10.4739 1.35767 9.30444C1.35916 9.30054 1.36067 9.29669 1.3622 9.29279L1.39952 9.23682C0.534927 8.70813 0 8.04254 0 7.2464L0 3.73206C0.00392151 3.70459 0.0101624 3.67755 0.0186615 3.65118C0.00897217 3.60608 0.00273132 3.56036 0 3.51434C0 1.20667 4.37894 0 8.7081 0C13.0373 0 17.4162 1.20667 17.4162 3.51434C17.4135 3.56036 17.4072 3.60608 17.3975 3.65118C17.406 3.67755 17.4123 3.70459 17.4162 3.73206L17.4162 7.2464C17.4135 7.48627 17.3627 7.72308 17.2669 7.94305C17.5268 8.10352 17.7407 8.2666 17.916 8.42896ZM1.24402 7.2464C1.24402 7.60718 1.68564 8.03009 2.48804 8.40955L2.48804 6.22009C2.49236 6.16315 2.50278 6.10681 2.51913 6.05212C2.07216 5.88531 1.64462 5.67053 1.24402 5.41144L1.24402 7.2464ZM16.1722 5.41144C15.7716 5.67053 15.344 5.88531 14.8971 6.05212C14.9134 6.10681 14.9238 6.16315 14.9282 6.22009L14.9282 8.40955C15.7306 8.03009 16.1722 7.60718 16.1722 7.2464L16.1722 5.41144ZM3.73204 8.87604C5.16278 9.27319 6.63872 9.48431 8.12341 9.50427C8.1015 9.44867 8.08888 9.38983 8.08609 9.33008L8.08609 7.01624C6.61745 6.98981 5.15663 6.79572 3.73204 6.43774L3.73204 8.87604ZM13.6842 6.43774C12.2596 6.79572 10.7988 6.98981 9.33011 7.01624L9.33011 9.33008C9.32732 9.38983 9.31471 9.44867 9.29279 9.50427C10.7775 9.48431 12.2534 9.27319 13.6842 8.87604L13.6842 6.43774Z" clip-rule="evenodd" fill="#FFFFFF" fill-opacity="1.000000" fill-rule="evenodd"/>
		</g>
	</g>
</svg>
