<svg width="21.260860" height="27.725098" viewBox="0 0 21.2609 27.7251" fill="none" xmlns="http://www.w3.org/2000/svg" xmlns:xlink="http://www.w3.org/1999/xlink">
	<desc>
			Created with Pixso.
	</desc>
	<defs>
		<linearGradient x1="14.440772" y1="-0.514209" x2="14.440772" y2="20.935806" id="paint_linear_11_305_0" gradientUnits="userSpaceOnUse">
			<stop stop-color="#F7C243"/>
			<stop offset="1.000000" stop-color="#FD902B"/>
		</linearGradient>
	</defs>
	<path id="Vector" d="M20.33 11.81L15.32 10.39C14.91 10.27 14.68 9.84 14.81 9.44L17.2 2.02C17.56 1.55 17.55 0.88 17.14 0.42C16.67 -0.1 15.87 -0.15 15.35 0.31L0.42 13.44C-0.1 13.9 -0.15 14.7 0.31 15.22C0.48 15.4 0.69 15.54 0.93 15.6C0.98 15.61 1.02 15.62 1.07 15.63C1.11 15.65 1.15 15.66 1.2 15.67L4.95 16.68C5.41 16.8 5.64 17.31 5.43 17.73L1.6 25.59C1.17 26.03 1.13 26.73 1.51 27.23C1.68 27.45 1.92 27.6 2.19 27.68C2.56 27.78 2.96 27.71 3.29 27.46L20.69 14.15C20.85 14.02 20.98 13.86 21.07 13.68C21.13 13.59 21.18 13.48 21.21 13.36C21.4 12.69 21.01 12 20.33 11.81Z" fill="url(#paint_linear_11_305_0)" fill-opacity="1.000000" fill-rule="nonzero"/>
</svg>
