<svg width="30.594101" height="15.934448" viewBox="0 0 30.5941 15.9344" fill="none" xmlns="http://www.w3.org/2000/svg" xmlns:xlink="http://www.w3.org/1999/xlink">
	<desc>
			Created with Pixso.
	</desc>
	<defs/>
	<g opacity="0.200000">
		<path id="Vector" d="M7.64 4.46C7.64 5.86 6.5 7.01 5.09 7.01C3.69 7.01 2.54 5.86 2.54 4.46C2.54 3.05 3.69 1.91 5.09 1.91C6.5 1.91 7.64 3.05 7.64 4.46Z" fill="#FFFFFF" fill-opacity="1.000000" fill-rule="evenodd"/>
		<path id="Vector" d="M8.5 8.79C7.84 9.29 7.3 9.93 6.93 10.68C6.56 11.42 6.37 12.23 6.37 13.06L6.37 13.38L0.95 13.38C0.43 13.38 0 12.95 0 12.42L0 11.79C0 9.85 1.56 8.28 3.5 8.28L6.69 8.28C7.35 8.28 7.97 8.47 8.5 8.79Z" fill="#FFFFFF" fill-opacity="1.000000" fill-rule="nonzero"/>
		<path id="Vector" d="M28.04 4.46C28.04 5.86 26.9 7.01 25.49 7.01C24.08 7.01 22.94 5.86 22.94 4.46C22.94 3.05 24.08 1.91 25.49 1.91C26.9 1.91 28.04 3.05 28.04 4.46Z" fill="#FFFFFF" fill-opacity="1.000000" fill-rule="evenodd"/>
		<path id="Vector" d="M30.59 11.79L30.59 12.42C30.59 12.95 30.16 13.38 29.63 13.38L24.22 13.38L24.22 13.06C24.22 11.31 23.37 9.76 22.09 8.79C22.61 8.47 23.23 8.28 23.9 8.28L27.08 8.28C29.02 8.28 30.59 9.85 30.59 11.79Z" fill="#FFFFFF" fill-opacity="1.000000" fill-rule="nonzero"/>
		<path id="Vector" d="M19.12 3.82C19.12 5.93 17.4 7.64 15.29 7.64C13.18 7.64 11.47 5.93 11.47 3.82C11.47 1.71 13.18 0 15.29 0C17.4 0 19.12 1.71 19.12 3.82Z" fill="#FFFFFF" fill-opacity="1.000000" fill-rule="evenodd"/>
		<path id="Vector" d="M18.8 9.56L11.79 9.56C10.86 9.56 9.97 9.93 9.31 10.58C8.65 11.24 8.28 12.13 8.28 13.06L8.28 14.97C8.28 15.5 8.71 15.93 9.24 15.93L21.35 15.93C21.6 15.93 21.84 15.83 22.02 15.65C22.2 15.47 22.3 15.23 22.3 14.97L22.3 13.06C22.3 12.13 21.93 11.24 21.28 10.58C20.62 9.93 19.73 9.56 18.8 9.56Z" fill="#FFFFFF" fill-opacity="1.000000" fill-rule="nonzero"/>
	</g>
</svg>
