<svg width="15.000000" height="15.000000" viewBox="0 0 15 15" fill="none" xmlns="http://www.w3.org/2000/svg" xmlns:xlink="http://www.w3.org/1999/xlink">
	<desc>
			Created with Pixso.
	</desc>
	<defs/>
	<path id="Vector" d="M7.5 0C6.01 0 4.56 0.43 3.33 1.26C2.09 2.08 1.13 3.25 0.57 4.62C0 6 -0.15 7.5 0.14 8.96C0.43 10.41 1.14 11.75 2.19 12.8C3.24 13.85 4.58 14.56 6.03 14.85C7.49 15.14 8.99 14.99 10.37 14.42C11.74 13.86 12.91 12.9 13.73 11.66C14.56 10.43 15 8.98 15 7.5C14.99 5.51 14.2 3.6 12.8 2.19C11.39 0.79 9.48 0 7.5 0ZM7.21 3.46C7.38 3.46 7.55 3.51 7.69 3.6C7.83 3.7 7.94 3.83 8.01 3.99C8.07 4.15 8.09 4.32 8.06 4.49C8.02 4.66 7.94 4.81 7.82 4.93C7.7 5.05 7.54 5.14 7.38 5.17C7.21 5.2 7.03 5.19 6.88 5.12C6.72 5.06 6.58 4.95 6.49 4.8C6.39 4.66 6.34 4.49 6.34 4.32C6.34 4.09 6.43 3.87 6.59 3.71C6.76 3.55 6.98 3.46 7.21 3.46ZM8.07 11.53C7.77 11.53 7.47 11.41 7.26 11.2C7.04 10.98 6.92 10.69 6.92 10.38L6.92 7.5C6.77 7.5 6.62 7.43 6.51 7.33C6.4 7.22 6.34 7.07 6.34 6.92C6.34 6.77 6.4 6.62 6.51 6.51C6.62 6.4 6.77 6.34 6.92 6.34C7.22 6.34 7.52 6.46 7.73 6.68C7.95 6.9 8.07 7.19 8.07 7.5L8.07 10.38C8.22 10.38 8.37 10.44 8.48 10.55C8.59 10.66 8.65 10.8 8.65 10.96C8.65 11.11 8.59 11.26 8.48 11.36C8.37 11.47 8.22 11.53 8.07 11.53Z" fill="#FFFFFF" fill-opacity="0.200000" fill-rule="nonzero"/>
</svg>
