<svg width="19.999992" height="19.999695" viewBox="0 0 20 19.9997" fill="none" xmlns="http://www.w3.org/2000/svg" xmlns:xlink="http://www.w3.org/1999/xlink">
	<desc>
			Created with Pixso.
	</desc>
	<defs/>
	<g opacity="0.200000">
		<path id="Vector" d="M3.34 6.56C2.92 6.14 2.93 5.46 3.34 5.04L3.76 4.62L5.04 3.34C5.07 3.31 5.1 3.28 5.13 3.27C5.33 3.1 5.59 3.01 5.86 3.03C6.12 3.04 6.37 3.15 6.56 3.34L8.25 5.03C8.38 5.16 8.82 5.6 8.94 5.72C9.13 5.91 9.24 6.16 9.25 6.43C9.27 6.69 9.18 6.95 9.02 7.16C8.98 7.21 8.57 7.61 8.52 7.67L7.67 8.52L7.24 8.95C6.84 9.36 6.12 9.36 5.72 8.95L3.34 6.56ZM2.76 4.61C2.55 4.36 2.44 4.04 2.45 3.71C2.46 3.38 2.6 3.07 2.83 2.83C3.31 2.36 4.11 2.33 4.61 2.76C4.59 2.78 4.56 2.81 4.54 2.83L2.76 4.61ZM9.02 8.17C9.07 8.11 9.48 7.72 9.52 7.66L19.61 17.75C20.12 18.24 20.12 19.12 19.61 19.61C19.12 20.12 18.24 20.12 17.75 19.61L7.66 9.53C7.7 9.5 7.72 9.47 7.74 9.45L9.02 8.17ZM0.93 11.87C1.49 10.3 2.26 8.82 3.23 7.46L5.07 9.3C3.32 11.37 1.84 13.69 0.67 16.13C0.61 16.25 0.49 16.33 0.35 16.33C0.15 16.33 -0.03 16.14 0 15.93C0.15 14.55 0.46 13.18 0.93 11.87ZM16.12 0.67C13.67 1.85 11.38 3.33 9.3 5.07C8.94 4.71 7.84 3.61 7.46 3.23C9.96 1.45 12.88 0.34 15.93 0C16.32 -0.05 16.48 0.51 16.12 0.67Z" fill="#FFFFFF" fill-opacity="1.000000" fill-rule="nonzero"/>
	</g>
</svg>
