<svg width="32.009033" height="32.488525" viewBox="0 0 32.009 32.4885" fill="none" xmlns="http://www.w3.org/2000/svg" xmlns:xlink="http://www.w3.org/1999/xlink">
	<desc>
			Created with Pixso.
	</desc>
	<defs/>
	<path id="Exclude" d="M31.998 16.188L31.998 16.251C32.1251 18.7396 31.1486 20.8062 29.3306 21.9864C28.6379 22.4388 27.8357 22.6951 27.0091 22.7282C26.1825 22.7613 25.3624 22.5699 24.6358 22.1743C23.0619 21.2934 22.1484 19.4663 22.1484 17.1994L22.1484 14.1112C22.0201 14.2698 21.9043 14.4386 21.8041 14.6163L18.0544 20.705C16.764 22.7514 15.5726 22.9112 14.7784 22.6907C13.9841 22.4702 13.0391 21.6815 13.0391 19.2582L13.0391 14.1866L6.20453 25.1466C7.35339 26.4575 8.75534 27.5227 10.3261 28.2783C11.8969 29.0338 13.6042 29.4642 15.3455 29.5435C17.0868 29.6229 18.8261 29.3495 20.4591 28.7399C22.0922 28.1303 23.5851 27.197 24.8484 25.996L24.8799 25.9645C25.1683 25.701 25.5496 25.5629 25.9398 25.5805C26.33 25.5981 26.6972 25.7701 26.9607 26.0584C27.2242 26.3468 27.3623 26.728 27.3447 27.1183C27.327 27.5085 27.1552 27.8757 26.8668 28.1392C23.9388 30.9334 20.0463 32.4913 15.999 32.4885C7.1788 32.4885 0 25.2287 0 16.251C0 7.27441 7.21143 0 15.999 0C24.7866 0 31.9665 7.27441 31.998 16.188ZM26.9872 19.7396C27.2931 19.7177 27.5874 19.6144 27.8399 19.4405L27.841 19.4315C28.7219 18.8667 29.1764 17.7304 29.1011 16.3151L29.1011 16.251C29.1011 8.91245 23.2127 2.95993 15.999 2.95993C8.78534 2.95993 2.89694 8.91245 2.89694 16.251C2.90036 18.424 3.42957 20.564 4.43936 22.4882L12.0299 10.3322C12.9423 8.9462 13.8873 8.85059 14.5173 9.03845C15.4624 9.32309 15.9675 10.2366 15.999 11.779L15.999 18.4864L19.391 13.0391C19.9276 12.157 21.3744 9.7821 23.2971 10.3626C24.43 10.6754 25.0915 11.905 25.0915 13.6038L25.0915 17.1735C25.0915 18.3391 25.4706 19.1884 26.1006 19.5653C26.3753 19.7014 26.6815 19.7616 26.9872 19.7396Z" clip-rule="evenodd" fill="#FFFFFF" fill-opacity="1.000000" fill-rule="evenodd"/>
</svg>
